<svg xmlns="http://www.w3.org/2000/svg" width="2828" height="4000" viewBox="0 0 2828 4000" role="img" aria-labelledby="title" preserveAspectRatio="xMidYMid meet">
  <title id="title">Wedding Flyer (gold) — Vector</title>
  <defs>
    <style>
      :root {
        --nb-font: Inter, system-ui, -apple-system, "Segoe UI", Roboto, Arial, sans-serif;
        --nb-bg: #ffffff;
        --nb-text: #111827;
        --nb-muted: #6b7280;
        --nb-accent: #2563eb;
        --nb-accent-2: #1d4ed8;
        --nb-accent-3: #60a5fa;
        --nb-border: rgba(17,24,39,0.18);
        --nb-accent: #A7770D;
      }
      .nb-field {
        font-family: var(--nb-font);
        fill: var(--nb-text);
      }
      .nb-muted { fill: var(--nb-muted); }
      .nb-accent { fill: var(--nb-accent); }
      .nb-stroke-accent { stroke: var(--nb-accent); }
      .nb-slot-outline {
        fill: rgba(37,99,235,0.10);
        stroke: rgba(37,99,235,0.35);
        stroke-width: 3;
      }
      .nb-box {
        fill: rgba(0,0,0,0);
        stroke: rgba(16,185,129,0.0);
        stroke-width: 1;
      }
    </style>
    <linearGradient id="nbBlueGrad" x1="0" y1="0" x2="1" y2="1">
      <stop offset="0" stop-color="var(--nb-accent-3)" />
      <stop offset="0.5" stop-color="var(--nb-accent)" />
      <stop offset="1" stop-color="var(--nb-accent-2)" />
    </linearGradient>
    <linearGradient id="nbSoftBg" x1="0" y1="0" x2="1" y2="0">
      <stop offset="0" stop-color="#e0f2fe" />
      <stop offset="1" stop-color="#dbeafe" />
    </linearGradient>
    <filter id="nbSoftShadow" x="-20%" y="-20%" width="140%" height="140%">
      <feDropShadow dx="0" dy="10" stdDeviation="18" flood-color="rgba(0,0,0,0.25)" />
    </filter>
    <clipPath id="clipRoundedCard">
      <rect x="0" y="0" width="2828" height="4000" rx="84.84" ry="84.84" />
    </clipPath>
  </defs>
  <g>
  <defs>
    <clipPath id="clip_slot_logo"><rect x="2121.00" y="1200.00" width="509.04" height="720.00" rx="20.36" ry="20.36" /></clipPath>
    <clipPath id="clip_slot_cardPreview"><rect x="622.16" y="2480.00" width="1583.68" height="800.00" rx="30.00" ry="30.00" /></clipPath>
    <clipPath id="clip_slot_qr"><rect x="2121.00" y="1960.00" width="509.04" height="509.04" rx="20.36" ry="20.36" /></clipPath>
  </defs>
    <rect x="0.00" y="0.00" width="2828.00" height="4000.00" rx="0.00" ry="0.00" fill="#ffffff" />
    <rect x="24.00" y="24.00" width="2780.00" height="3952.00" rx="200.00" ry="200.00" fill="none" stroke="#111827" stroke-width="48" />
    <path d="M 1128.0 298.0 C 1258.0 233.0, 1336.0 233.0, 1388.0 272.0 C 1414.0 298.0, 1414.0 298.0, 1440.0 272.0 C 1492.0 233.0, 1570.0 233.0, 1700.0 298.0" fill="none" stroke="#A7770D" stroke-width="10.4" stroke-linecap="round" />
    <g transform="translate(0,4000) scale(1,-1)"><path d="M 1128.0 298.0 C 1258.0 233.0, 1336.0 233.0, 1388.0 272.0 C 1414.0 298.0, 1414.0 298.0, 1440.0 272.0 C 1492.0 233.0, 1570.0 233.0, 1700.0 298.0" fill="none" stroke="#A7770D" stroke-width="10.4" stroke-linecap="round" /></g>
    <line x1="114.0" y1="520" x2="114.0" y2="3480" stroke="#A7770D" stroke-width="8" opacity="0.9" />
    <line x1="2714.0" y1="520" x2="2714.0" y2="3480" stroke="#A7770D" stroke-width="8" opacity="0.9" />
    <g id="nb_editable">
      <rect x="2121.00" y="1200.00" width="509.04" height="720.00" rx="20.36" ry="20.36" id="slot_logo_outline" class="nb-slot-outline" />
      <image id="slot_logo" x="2121.00" y="1200.00" width="509.04" height="720.00" href="" preserveAspectRatio="xMidYMid slice" clip-path="url(#clip_slot_logo)" />
      <rect x="2121.00" y="1960.00" width="509.04" height="509.04" rx="20.36" ry="20.36" id="slot_qr_outline" class="nb-slot-outline" />
      <image id="slot_qr" x="2121.00" y="1960.00" width="509.04" height="509.04" href="" preserveAspectRatio="xMidYMid slice" clip-path="url(#clip_slot_qr)" />
      <rect x="622.16" y="2480.00" width="1583.68" height="800.00" rx="30.00" ry="30.00" id="slot_cardPreview_outline" class="nb-slot-outline" />
      <image id="slot_cardPreview" x="622.16" y="2480.00" width="1583.68" height="800.00" href="" preserveAspectRatio="xMidYMid slice" clip-path="url(#clip_slot_cardPreview)" />
      <rect x="226.24" y="600.00" width="2375.52" height="400.00" rx="0.00" ry="0.00" id="box_title" class="nb-box" />
      <text id="field_title" class="nb-field" x="226.24" y="880.00" font-size="280" font-weight="600" text-anchor="start"><tspan x="226.24" dy="0.00">​</tspan></text>
      <rect x="226.24" y="1120.00" width="2375.52" height="320.00" rx="0.00" ry="0.00" id="box_subtitle" class="nb-box" />
      <text id="field_subtitle" class="nb-field" x="226.24" y="1300.00" font-size="180" font-weight="600" text-anchor="start"><tspan x="226.24" dy="0.00">​</tspan></text>
      <rect x="226.24" y="2600.00" width="2375.52" height="720.00" rx="0.00" ry="0.00" id="box_details" class="nb-box" />
      <text id="field_details" class="nb-field" x="226.24" y="2740.00" font-size="140" font-weight="600" text-anchor="start"><tspan x="226.24" dy="0.00">​</tspan><tspan x="226.24" dy="168.00">​</tspan><tspan x="226.24" dy="168.00">​</tspan></text>
      <rect x="226.24" y="3600.00" width="2375.52" height="240.00" rx="0.00" ry="0.00" id="box_cta" class="nb-box" />
      <text id="field_cta" class="nb-field" x="226.24" y="3760.00" font-size="160" font-weight="600" text-anchor="start"><tspan x="226.24" dy="0.00">​</tspan></text>
    </g>
  </g>
</svg>
