<?xml version="1.0" encoding="UTF-8"?>
<svg xmlns="http://www.w3.org/2000/svg" width="320" height="180" viewBox="0 0 1600 900">
  <defs>
    <linearGradient id="t-ab-g1" x1="0" y1="0" x2="1" y2="1">
      <stop offset="0%" stop-color="#1439B2" />
      <stop offset="50%" stop-color="#3B85FF" />
      <stop offset="100%" stop-color="#2164F7" />
    </linearGradient>
    <clipPath id="t-ab-c">
      <rect x="16" y="16" width="1568" height="868" rx="24" />
    </clipPath>
  <clipPath id="nb-premium-address-blue-diagonal-landscape-bg-thumb-clip"><rect x="0.0" y="0.0" width="1600.0" height="900.0" rx="36.0" ry="36.0" /></clipPath><filter id="nb-premium-address-blue-diagonal-landscape-bg-thumb-bevel" x="-2%" y="-2%" width="104%" height="104%" color-interpolation-filters="sRGB"><feDropShadow dx="-1" dy="-1" stdDeviation="1.5" flood-color="#FFFFFF" flood-opacity="0.12" result="highlight" /><feDropShadow dx="1.5" dy="1.5" stdDeviation="2" flood-color="#000000" flood-opacity="0.10" result="shadow" /><feMerge><feMergeNode in="shadow" /><feMergeNode in="highlight" /><feMergeNode in="SourceGraphic" /></feMerge></filter></defs>
  <g clip-path="url(#nb-premium-address-blue-diagonal-landscape-bg-thumb-clip)" filter="url(#nb-premium-address-blue-diagonal-landscape-bg-thumb-bevel)"><rect x="16" y="16" width="1568" height="868" rx="24" fill="url(#t-ab-g1)" />
  <g clip-path="url(#t-ab-c)">
    <polygon points="300,16 1584,16 1584,884 700,884" fill="rgba(255,255,255,0.92)" />
    <polygon points="300,16 340,16 740,884 700,884" fill="rgba(59,133,255,0.08)" />
    <rect x="60" y="700" width="120" height="4" rx="2" fill="rgba(255,255,255,0.2)" />
    <line x1="1460" y1="80" x2="1520" y2="80" stroke="#3B85FF" stroke-width="2" opacity="0.25" />
    <line x1="1520" y1="80" x2="1520" y2="140" stroke="#3B85FF" stroke-width="2" opacity="0.25" />
    <rect x="480" y="120" width="1020" height="640" rx="12" fill="none" stroke="rgba(59,133,255,0.08)" stroke-width="1.5" />
  </g>
</g></svg>
