<?xml version="1.0" encoding="UTF-8"?>
<svg xmlns="http://www.w3.org/2000/svg" width="180" height="280" viewBox="0 0 1080 1680">
  <defs>
    <linearGradient id="t-if-bg" x1="0" y1="0" x2="0.3" y2="1">
      <stop offset="0%" stop-color="#f8fafc" />
      <stop offset="100%" stop-color="#EAEFF5" />
    </linearGradient>
  <clipPath id="nb-premium-ink-frame-overlay-portrait-thumb-clip"><rect x="0.0" y="0.0" width="1080.0" height="1680.0" rx="43.2" ry="43.2" /></clipPath><filter id="nb-premium-ink-frame-overlay-portrait-thumb-bevel" x="-2%" y="-2%" width="104%" height="104%" color-interpolation-filters="sRGB"><feDropShadow dx="-1" dy="-1" stdDeviation="1.5" flood-color="#FFFFFF" flood-opacity="0.12" result="highlight" /><feDropShadow dx="1.5" dy="1.5" stdDeviation="2" flood-color="#000000" flood-opacity="0.10" result="shadow" /><feMerge><feMergeNode in="shadow" /><feMergeNode in="highlight" /><feMergeNode in="SourceGraphic" /></feMerge></filter></defs>
  
  <g clip-path="url(#nb-premium-ink-frame-overlay-portrait-thumb-clip)" filter="url(#nb-premium-ink-frame-overlay-portrait-thumb-bevel)"><rect x="0" y="0" width="1080" height="1680" rx="28" fill="url(#t-if-bg)" />
  
  <rect x="24" y="24" width="1032" height="1632" rx="20" fill="none" stroke="#1B273A" stroke-width="6" />
  
  <rect x="48" y="48" width="984" height="1584" rx="14" fill="none" stroke="#97A7BE" stroke-width="2.5" opacity="0.35" />
  
  <rect x="64" y="64" width="952" height="1552" rx="10" fill="none" stroke="#97A7BE" stroke-width="1.5" opacity="0.18" />
  
  <line x1="48" y1="120" x2="120" y2="48" stroke="#97A7BE" stroke-width="1.5" opacity="0.25" />
  <line x1="1032" y1="120" x2="960" y2="48" stroke="#97A7BE" stroke-width="1.5" opacity="0.25" />
  <line x1="48" y1="1560" x2="120" y2="1632" stroke="#97A7BE" stroke-width="1.5" opacity="0.25" />
  <line x1="1032" y1="1560" x2="960" y2="1632" stroke="#97A7BE" stroke-width="1.5" opacity="0.25" />
  
  <polygon points="540,32 556,48 540,64 524,48" fill="none" stroke="#97A7BE" stroke-width="1.2" opacity="0.25" />
  
  <polygon points="540,1616 556,1632 540,1648 524,1632" fill="none" stroke="#97A7BE" stroke-width="1.2" opacity="0.25" />
</g></svg>
