<?xml version="1.0" encoding="UTF-8"?>
<svg xmlns="http://www.w3.org/2000/svg" width="180" height="280" viewBox="0 0 1080 1680">
  <defs>
    <linearGradient id="t-mb-p-g1" x1="0" y1="0" x2="0.3" y2="1">
      <stop offset="0%" stop-color="#0C152A" />
      <stop offset="50%" stop-color="#0F1627" />
      <stop offset="100%" stop-color="#091120" />
    </linearGradient>
    <radialGradient id="t-mb-p-gl" cx="0.5" cy="0.25" r="0.5">
      <stop offset="0%" stop-color="#1B273A" />
      <stop offset="100%" stop-color="#091120" />
    </radialGradient>
    <clipPath id="t-mb-p-c">
      <rect x="16" y="16" width="1048" height="1648" rx="24" />
    </clipPath>
  <clipPath id="nb-premium-minimal-black-portrait-bg-thumb-clip"><rect x="0.0" y="0.0" width="1080.0" height="1680.0" rx="43.2" ry="43.2" /></clipPath><filter id="nb-premium-minimal-black-portrait-bg-thumb-bevel" x="-2%" y="-2%" width="104%" height="104%" color-interpolation-filters="sRGB"><feDropShadow dx="-1" dy="-1" stdDeviation="1.5" flood-color="#FFFFFF" flood-opacity="0.12" result="highlight" /><feDropShadow dx="1.5" dy="1.5" stdDeviation="2" flood-color="#000000" flood-opacity="0.10" result="shadow" /><feMerge><feMergeNode in="shadow" /><feMergeNode in="highlight" /><feMergeNode in="SourceGraphic" /></feMerge></filter></defs>
  <g clip-path="url(#nb-premium-minimal-black-portrait-bg-thumb-clip)" filter="url(#nb-premium-minimal-black-portrait-bg-thumb-bevel)"><rect x="16" y="16" width="1048" height="1648" rx="24" fill="url(#t-mb-p-g1)" />
  <g clip-path="url(#t-mb-p-c)">
    <rect x="16" y="16" width="1048" height="1648" fill="url(#t-mb-p-gl)" opacity="0.35" />
    <path d="M16,700 Q270,580 540,700 T1064,620" fill="none" stroke="#97A7BE" stroke-width="1" opacity="0.12" />
    <path d="M16,720 Q290,610 560,720 T1064,650" fill="none" stroke="#3B85FF" stroke-width="0.8" opacity="0.09" />
    <line x1="80" y1="80" x2="80" y2="160" stroke="#97A7BE" stroke-width="1.5" opacity="0.15" />
    <line x1="80" y1="80" x2="160" y2="80" stroke="#97A7BE" stroke-width="1.5" opacity="0.15" />
    <line x1="1000" y1="1600" x2="1000" y2="1520" stroke="#97A7BE" stroke-width="1.5" opacity="0.15" />
    <line x1="1000" y1="1600" x2="920" y2="1600" stroke="#97A7BE" stroke-width="1.5" opacity="0.15" />
    <rect x="60" y="100" width="960" height="680" rx="12" fill="rgba(255,255,255,0.025)" />
    <rect x="60" y="100" width="5" height="48" rx="2.5" fill="#3B85FF" opacity="0.32" />
    <rect x="60" y="880" width="960" height="700" rx="12" fill="rgba(255,255,255,0.018)" />
  </g>
</g></svg>
