<?xml version="1.0" encoding="UTF-8"?>
<svg xmlns="http://www.w3.org/2000/svg" width="320" height="180" viewBox="0 0 1600 900">
  <defs>
    <linearGradient id="t-mb-l-g1" x1="0" y1="0" x2="1" y2="1">
      <stop offset="0%" stop-color="#091120" />
      <stop offset="60%" stop-color="#0F1627" />
      <stop offset="100%" stop-color="#0C152A" />
    </linearGradient>
    <radialGradient id="t-mb-l-gl" cx="0.2" cy="0.3" r="0.6">
      <stop offset="0%" stop-color="#1B273A" />
      <stop offset="100%" stop-color="#091120" />
    </radialGradient>
    <clipPath id="t-mb-l-c">
      <rect x="16" y="16" width="1568" height="868" rx="24" />
    </clipPath>
  <clipPath id="nb-premium-minimal-black-landscape-bg-thumb-clip"><rect x="0.0" y="0.0" width="1600.0" height="900.0" rx="36.0" ry="36.0" /></clipPath><filter id="nb-premium-minimal-black-landscape-bg-thumb-bevel" x="-2%" y="-2%" width="104%" height="104%" color-interpolation-filters="sRGB"><feDropShadow dx="-1" dy="-1" stdDeviation="1.5" flood-color="#FFFFFF" flood-opacity="0.12" result="highlight" /><feDropShadow dx="1.5" dy="1.5" stdDeviation="2" flood-color="#000000" flood-opacity="0.10" result="shadow" /><feMerge><feMergeNode in="shadow" /><feMergeNode in="highlight" /><feMergeNode in="SourceGraphic" /></feMerge></filter></defs>
  <g clip-path="url(#nb-premium-minimal-black-landscape-bg-thumb-clip)" filter="url(#nb-premium-minimal-black-landscape-bg-thumb-bevel)"><rect x="16" y="16" width="1568" height="868" rx="24" fill="url(#t-mb-l-g1)" />
  <g clip-path="url(#t-mb-l-c)">
    <rect x="16" y="16" width="1568" height="868" fill="url(#t-mb-l-gl)" opacity="0.4" />
    <path d="M16,500 Q300,350 600,480 T1200,380 T1584,500" fill="none" stroke="#97A7BE" stroke-width="1" opacity="0.12" />
    <path d="M16,520 Q350,370 650,500 T1250,400 T1584,520" fill="none" stroke="#3B85FF" stroke-width="0.8" opacity="0.1" />
    <line x1="100" y1="100" x2="100" y2="200" stroke="#97A7BE" stroke-width="1.5" opacity="0.15" />
    <line x1="100" y1="100" x2="200" y2="100" stroke="#97A7BE" stroke-width="1.5" opacity="0.15" />
    <line x1="1500" y1="780" x2="1500" y2="680" stroke="#97A7BE" stroke-width="1.5" opacity="0.15" />
    <line x1="1500" y1="780" x2="1400" y2="780" stroke="#97A7BE" stroke-width="1.5" opacity="0.15" />
    <rect x="60" y="100" width="880" height="680" rx="12" fill="rgba(255,255,255,0.025)" />
    <rect x="60" y="100" width="5" height="40" rx="2.5" fill="#3B85FF" opacity="0.35" />
  </g>
</g></svg>
