<svg xmlns="http://www.w3.org/2000/svg" viewBox="0 0 256 256">
  <defs>
    <linearGradient id="grad1" x1="0%" y1="0%" x2="100%" y2="100%">
      <stop offset="0%" style="stop-color:#B8A4D4;stop-opacity:1" />
      <stop offset="100%" style="stop-color:#FF9B8A;stop-opacity:1" />
    </linearGradient>
  </defs>
  <circle cx="128" cy="128" r="100" fill="none" stroke="url(#grad1)" stroke-width="3" opacity="0.3"/>
  <path d="M 128 28 A 100 100 0 0 1 228 128" fill="none" stroke="#B8A4D4" stroke-width="4" stroke-linecap="round"/>
  <path d="M 228 128 A 100 100 0 0 1 128 228" fill="none" stroke="#E8A5C0" stroke-width="4" stroke-linecap="round"/>
  <path d="M 128 228 A 100 100 0 0 1 28 128" fill="none" stroke="#FF9B8A" stroke-width="4" stroke-linecap="round"/>
  <path d="M 28 128 A 100 100 0 0 1 128 28" fill="none" stroke="#D4B8E8" stroke-width="4" stroke-linecap="round"/>
  <path d="M 210 90 L 228 128 L 190 110" fill="none" stroke="#B8A4D4" stroke-width="3" stroke-linecap="round" stroke-linejoin="round"/>
  <path d="M 46 166 L 28 128 L 66 146" fill="none" stroke="#FF9B8A" stroke-width="3" stroke-linecap="round" stroke-linejoin="round"/>
  <circle cx="128" cy="128" r="35" fill="none" stroke="url(#grad1)" stroke-width="2" opacity="0.5"/>
  <path d="M 128 100 Q 128 115 128 128 Q 128 141 128 156" fill="none" stroke="url(#grad1)" stroke-width="2.5" stroke-linecap="round" opacity="0.7"/>
  <path d="M 100 128 Q 115 128 128 128 Q 141 128 156 128" fill="none" stroke="url(#grad1)" stroke-width="2.5" stroke-linecap="round" opacity="0.7"/>
</svg>