<svg xmlns="http://www.w3.org/2000/svg" width="1024" height="1024" viewBox="0 0 1024 1024" fill="none">
  <metadata>Generated 2026-02-15T20:18:58.640665Z</metadata>

  <defs>
    <linearGradient id="nb_goldStroke" x1="0" y1="0" x2="1" y2="1">
      <stop offset="0" stop-color="#F6E27A" />
      <stop offset="0.25" stop-color="#C89B2D" />
      <stop offset="0.5" stop-color="#F2D06B" />
      <stop offset="0.75" stop-color="#B8871E" />
      <stop offset="1" stop-color="#F7E58B" />
    </linearGradient>
    <radialGradient id="nb_goldBall" cx="35%" cy="30%" r="80%">
      <stop offset="0" stop-color="#FFF2B8" />
      <stop offset="0.35" stop-color="#F2D06B" />
      <stop offset="0.7" stop-color="#C58E1C" />
      <stop offset="1" stop-color="#8A5B08" />
    </radialGradient>

    <linearGradient id="nb_darkBg" x1="0" y1="0" x2="1" y2="1">
      <stop offset="0" stop-color="#0B0F17" />
      <stop offset="0.5" stop-color="#111827" />
      <stop offset="1" stop-color="#05070B" />
    </linearGradient>

    <linearGradient id="nb_blueA" x1="0" y1="0" x2="1" y2="1">
      <stop offset="0" stop-color="#0B2C6B" />
      <stop offset="0.5" stop-color="#0EA5E9" />
      <stop offset="1" stop-color="#083B8F" />
    </linearGradient>

    <linearGradient id="nb_blueB" x1="1" y1="0" x2="0" y2="1">
      <stop offset="0" stop-color="#E0F2FE" />
      <stop offset="0.35" stop-color="#7DD3FC" />
      <stop offset="1" stop-color="#1D4ED8" />
    </linearGradient>

    <filter id="nb_softShadow" x="-20%" y="-20%" width="140%" height="140%">
      <feDropShadow dx="0" dy="10" stdDeviation="18" flood-color="#000" flood-opacity="0.25" />
    </filter>

    <style>
      :root{
        --nb-bg: #ffffff;
        --nb-panel: rgba(255,255,255,0.9);
        --nb-text: #0B1220;
        --nb-muted: #334155;
        --nb-accent: #0EA5E9;
        --nb-accent2: #1D4ED8;
        --nb-gold: #C89B2D;
      }
      .nb_text{font-family: Inter, system-ui, -apple-system, Segoe UI, Roboto, Arial, sans-serif; fill: var(--nb-text);}
      .nb_muted{fill: var(--nb-muted);}
    </style>
  </defs>

  <rect x="0" y="0" width="1024" height="1024" fill="url(#nb_blueB)" />
  <rect x="-200" y="180" width="1400" height="220" fill="url(#nb_blueA)" opacity="0.22" transform="rotate(45 512.0 512.0)" />
  <rect x="-120" y="520" width="1400" height="260" fill="url(#nb_blueA)" opacity="0.18" transform="rotate(45 512.0 512.0)" />
  <rect x="-360" y="700" width="1600" height="320" fill="url(#nb_blueA)" opacity="0.16" transform="rotate(45 512.0 512.0)" />
  <rect x="-150" y="20" width="1500" height="280" fill="url(#nb_blueA)" opacity="0.12" transform="rotate(45 512.0 512.0)" />
  <defs><pattern id="nb_dot" width="44" height="44" patternUnits="userSpaceOnUse"><circle cx="4" cy="4" r="2" fill="rgba(255,255,255,0.22)" /></pattern></defs>
  <rect x="0" y="0" width="1024" height="1024" fill="url(#nb_dot)" opacity="0.65" />
  <rect x="110" y="110" width="804" height="804" rx="40" fill="rgba(255,255,255,0.92)" filter="url(#nb_softShadow)" />
  <rect x="90" y="90" width="844" height="844" rx="70" fill="none" stroke="rgba(14,165,233,0.95)" stroke-width="8" />
  <rect x="106" y="106" width="812" height="812" rx="58" fill="none" stroke="rgba(2,132,199,0.8)" stroke-width="2" />
  <circle cx="100" cy="100" r="22" fill="none" stroke="rgba(14,165,233,0.95)" stroke-width="6" />
  <circle cx="120" cy="120" r="30" fill="none" stroke="rgba(14,165,233,0.75)" stroke-width="6" />
  <circle cx="932" cy="532" r="18" fill="rgba(56,189,248,0.9)" />
  <circle cx="936" cy="594" r="8" fill="rgba(56,189,248,0.9)" />
  <circle cx="934" cy="737" r="18" fill="none" stroke="rgba(14,165,233,0.95)" stroke-width="6" />
  <line x1="250" y1="100" x2="854" y2="100" stroke="rgba(2,132,199,0.9)" stroke-width="4" />
  <line x1="90" y1="924" x2="774" y2="924" stroke="rgba(2,132,199,0.9)" stroke-width="4" />
  <g id="nb_editable" aria-label="Editable overlay">
    <rect id="box_fullName" x="200" y="250" width="624" height="74" opacity="0" fill="none" />
    <text id="field_fullName" x="200" y="310" font-size="52" font-weight="800" text-anchor="start" class="nb_text">​</text>
    <rect id="box_jobTitle" x="200" y="334" width="624" height="46" opacity="0" fill="none" />
    <text id="field_jobTitle" x="200" y="368" font-size="30" font-weight="600" text-anchor="start" class="nb_text">​</text>
    <rect id="box_phone" x="200" y="424" width="624" height="42" opacity="0" fill="none" />
    <text id="field_phone" x="200" y="456" font-size="28" font-weight="600" text-anchor="start" class="nb_text">​</text>
    <rect id="box_email" x="200" y="478" width="624" height="42" opacity="0" fill="none" />
    <text id="field_email" x="200" y="510" font-size="28" font-weight="600" text-anchor="start" class="nb_text">​</text>
    <rect id="box_website" x="200" y="532" width="624" height="42" opacity="0" fill="none" />
    <text id="field_website" x="200" y="564" font-size="28" font-weight="600" text-anchor="start" class="nb_text">​</text>
    <rect id="box_addressLine1" x="200" y="618" width="520" height="40" opacity="0" fill="none" />
    <text id="field_addressLine1" x="200" y="650" font-size="26" font-weight="600" text-anchor="start" class="nb_text">​</text>
    <rect id="box_addressLine2" x="200" y="662" width="520" height="40" opacity="0" fill="none" />
    <text id="field_addressLine2" x="200" y="694" font-size="26" font-weight="600" text-anchor="start" class="nb_text">​</text>
    <rect id="box_profilePhoto" x="200" y="740" width="150" height="150" rx="28" opacity="0" fill="none" />
    <clipPath id="clip_profilePhoto"><rect x="200" y="740" width="150" height="150" rx="28" /></clipPath>
    <image id="slot_profilePhoto" href="" x="200" y="740" width="150" height="150" preserveAspectRatio="xMidYMid slice" clip-path="url(#clip_profilePhoto)" />
    <rect x="200" y="740" width="150" height="150" rx="28" fill="none" stroke="rgba(148,163,184,0.55)" stroke-dasharray="10 10" />
    <rect id="box_qr" x="770" y="760" width="190" height="190" rx="18" opacity="0" fill="none" />
    <clipPath id="clip_qr"><rect x="770" y="760" width="190" height="190" rx="18" /></clipPath>
    <image id="slot_qr" href="" x="770" y="760" width="190" height="190" preserveAspectRatio="xMidYMid meet" clip-path="url(#clip_qr)" />
    <rect x="770" y="760" width="190" height="190" rx="18" fill="none" stroke="rgba(148,163,184,0.55)" stroke-dasharray="10 10" />
    <rect id="box_logo" x="770" y="250" width="190" height="90" rx="18" opacity="0" fill="none" />
    <clipPath id="clip_logo"><rect x="770" y="250" width="190" height="90" rx="18" /></clipPath>
    <image id="slot_logo" href="" x="770" y="250" width="190" height="90" preserveAspectRatio="xMidYMid meet" clip-path="url(#clip_logo)" />
    <rect x="770" y="250" width="190" height="90" rx="18" fill="none" stroke="rgba(148,163,184,0.55)" stroke-dasharray="10 10" />
  </g>
</svg>
