<svg xmlns="http://www.w3.org/2000/svg" width="1536" height="1024" viewBox="0 0 1536 1024" fill="none">
  <metadata>Generated 2026-02-15T20:18:58.594562Z</metadata>

  <defs>
    <linearGradient id="nb_goldStroke" x1="0" y1="0" x2="1" y2="1">
      <stop offset="0" stop-color="#F6E27A"/>
      <stop offset="0.25" stop-color="#C89B2D"/>
      <stop offset="0.5" stop-color="#F2D06B"/>
      <stop offset="0.75" stop-color="#B8871E"/>
      <stop offset="1" stop-color="#F7E58B"/>
    </linearGradient>
    <radialGradient id="nb_goldBall" cx="35%" cy="30%" r="80%">
      <stop offset="0" stop-color="#FFF2B8"/>
      <stop offset="0.35" stop-color="#F2D06B"/>
      <stop offset="0.7" stop-color="#C58E1C"/>
      <stop offset="1" stop-color="#8A5B08"/>
    </radialGradient>

    <linearGradient id="nb_darkBg" x1="0" y1="0" x2="1" y2="1">
      <stop offset="0" stop-color="#0B0F17"/>
      <stop offset="0.5" stop-color="#111827"/>
      <stop offset="1" stop-color="#05070B"/>
    </linearGradient>

    <linearGradient id="nb_blueA" x1="0" y1="0" x2="1" y2="1">
      <stop offset="0" stop-color="#0B2C6B"/>
      <stop offset="0.5" stop-color="#0EA5E9"/>
      <stop offset="1" stop-color="#083B8F"/>
    </linearGradient>

    <linearGradient id="nb_blueB" x1="1" y1="0" x2="0" y2="1">
      <stop offset="0" stop-color="#E0F2FE"/>
      <stop offset="0.35" stop-color="#7DD3FC"/>
      <stop offset="1" stop-color="#1D4ED8"/>
    </linearGradient>

    <filter id="nb_softShadow" x="-20%" y="-20%" width="140%" height="140%">
      <feDropShadow dx="0" dy="10" stdDeviation="18" flood-color="#000" flood-opacity="0.25"/>
    </filter>

    <style>
      :root{
        --nb-bg: #ffffff;
        --nb-panel: rgba(255,255,255,0.9);
        --nb-text: #0B1220;
        --nb-muted: #334155;
        --nb-accent: #0EA5E9;
        --nb-accent2: #1D4ED8;
        --nb-gold: #C89B2D;
      }
      .nb_text{font-family: Inter, system-ui, -apple-system, Segoe UI, Roboto, Arial, sans-serif; fill: var(--nb-text);}
      .nb_muted{fill: var(--nb-muted);}
    </style>
  </defs>

  <rect width="1536" height="1024" fill="#F8FAFC"/>
  <g filter="url(#nb_softShadow)">
    <rect x="208" y="120" width="1120" height="380" rx="28" fill="url(#nb_darkBg)"/>
    <rect x="208" y="540" width="1120" height="380" rx="28" fill="rgba(255,255,255,0.96)"/>
  </g>
  <path d="M 1068 540 L 1328 540 L 1328 800 Z" fill="rgba(29,78,216,0.85)"/>
  <path d="M 1028 540 L 1288 540 L 1328 760 Z" fill="rgba(200,155,45,0.75)"/>
  <path d="M 488 370 C 728 450, 908 440, 1108 360" stroke="url(#nb_goldStroke)" stroke-width="18" stroke-linecap="round" opacity="0.85"/>
  <path d="M 508 388 C 768 460, 928 450, 1148 350" stroke="rgba(14,165,233,0.9)" stroke-width="16" stroke-linecap="round" opacity="0.9"/>
  <g id="nb_editable" aria-label="Editable overlay">
    <rect id="box_fullName" x="388" y="240" width="760" height="70" opacity="0" fill="none"/>
    <text id="field_fullName" x="768.0" y="290" font-size="56" font-weight="900" font-family="Inter, system-ui, -apple-system, Segoe UI, Roboto, Arial, sans-serif" fill="var(--nb-text,#0B1220)" text-anchor="middle">FULL NAME</text>
    <rect id="box_jobTitle" x="428" y="310" width="680" height="40" opacity="0" fill="none"/>
    <text id="field_jobTitle" x="768.0" y="345" font-size="28" font-weight="600" font-family="Inter, system-ui, -apple-system, Segoe UI, Roboto, Arial, sans-serif" fill="var(--nb-text,#0B1220)" text-anchor="middle">Job Title</text>
    <rect id="box_phone" x="358" y="660" width="520" height="40" opacity="0" fill="none"/>
    <text id="field_phone" x="358" y="690" font-size="28" font-weight="700" font-family="Inter, system-ui, -apple-system, Segoe UI, Roboto, Arial, sans-serif" fill="var(--nb-text,#0B1220)" text-anchor="start">+44 00 0000 0000</text>
    <rect id="box_email" x="358" y="730" width="620" height="40" opacity="0" fill="none"/>
    <text id="field_email" x="358" y="760" font-size="28" font-weight="700" font-family="Inter, system-ui, -apple-system, Segoe UI, Roboto, Arial, sans-serif" fill="var(--nb-text,#0B1220)" text-anchor="start">name@email.com</text>
    <rect id="box_website" x="358" y="800" width="620" height="40" opacity="0" fill="none"/>
    <text id="field_website" x="358" y="830" font-size="28" font-weight="700" font-family="Inter, system-ui, -apple-system, Segoe UI, Roboto, Arial, sans-serif" fill="var(--nb-text,#0B1220)" text-anchor="start">www.example.com</text>
    <rect id="box_addressLine1" x="358" y="870" width="620" height="34" opacity="0" fill="none"/>
    <text id="field_addressLine1" x="358" y="900" font-size="24" font-weight="600" font-family="Inter, system-ui, -apple-system, Segoe UI, Roboto, Arial, sans-serif" fill="var(--nb-text,#0B1220)" text-anchor="start">Address line 1</text>
    <rect id="box_addressLine2" x="358" y="902" width="620" height="34" opacity="0" fill="none"/>
    <text id="field_addressLine2" x="358" y="932" font-size="24" font-weight="600" font-family="Inter, system-ui, -apple-system, Segoe UI, Roboto, Arial, sans-serif" fill="var(--nb-text,#0B1220)" text-anchor="start">City, Postcode</text>
    <rect id="box_qr" x="968" y="700" width="220" height="220" rx="18" opacity="0" fill="none"/>
    <clipPath id="clip_qr"><rect x="968" y="700" width="220" height="220" rx="18"/></clipPath>
    <image id="slot_qr" href="" x="968" y="700" width="220" height="220" preserveAspectRatio="xMidYMid meet" clip-path="url(#clip_qr)"/>
    <rect x="968" y="700" width="220" height="220" rx="18" fill="none" stroke="rgba(148,163,184,0.55)" stroke-dasharray="10 10"/>
    <rect id="box_barcode" x="358" y="960" width="620" height="70" rx="16" opacity="0" fill="none"/>
    <clipPath id="clip_barcode"><rect x="358" y="960" width="620" height="70" rx="16"/></clipPath>
    <image id="slot_barcode" href="" x="358" y="960" width="620" height="70" preserveAspectRatio="xMidYMid meet" clip-path="url(#clip_barcode)"/>
    <rect x="358" y="960" width="620" height="70" rx="16" fill="none" stroke="rgba(148,163,184,0.55)" stroke-dasharray="10 10"/>
    <rect id="box_logo" x="328" y="180" width="160" height="80" rx="14" opacity="0" fill="none"/>
    <clipPath id="clip_logo"><rect x="328" y="180" width="160" height="80" rx="14"/></clipPath>
    <image id="slot_logo" href="" x="328" y="180" width="160" height="80" preserveAspectRatio="xMidYMid meet" clip-path="url(#clip_logo)"/>
    <rect x="328" y="180" width="160" height="80" rx="14" fill="none" stroke="rgba(148,163,184,0.55)" stroke-dasharray="10 10"/>
  </g>

</svg>