<?xml version="1.0" encoding="UTF-8"?>
<svg xmlns="http://www.w3.org/2000/svg" width="1600" height="900" viewBox="0 0 1600 900">
  <defs>
    <linearGradient id="bgBlue" x1="0" y1="0" x2="1" y2="1">
      <stop offset="0%" stop-color="#1e40af"/>
      <stop offset="55%" stop-color="#3b82f6"/>
      <stop offset="100%" stop-color="#2563eb"/>
    </linearGradient>

    <linearGradient id="accentCyan" x1="0" y1="0" x2="1" y2="0">
      <stop offset="0%" stop-color="#06b6d4" stop-opacity="0.35"/>
      <stop offset="100%" stop-color="#06b6d4" stop-opacity="0"/>
    </linearGradient>

    <filter id="softShadow" x="-20%" y="-20%" width="140%" height="140%">
      <feDropShadow dx="0" dy="10" stdDeviation="14" flood-color="#0b1220" flood-opacity="0.18"/>
    </filter>

    <clipPath id="avatarClip">
      <circle cx="460" cy="260" r="88"/>
    </clipPath>

    <style>
      .h1 { font: 700 54px system-ui, -apple-system, Segoe UI, Roboto, Helvetica, Arial, sans-serif; fill: #0b1220; }
      .h2 { font: 600 28px system-ui, -apple-system, Segoe UI, Roboto, Helvetica, Arial, sans-serif; fill: #0b1220; opacity: 0.86; }
      .label { font: 600 20px system-ui, -apple-system, Segoe UI, Roboto, Helvetica, Arial, sans-serif; fill: #0b1220; opacity: 0.72; letter-spacing: 0.2px; }
      .value { font: 500 24px system-ui, -apple-system, Segoe UI, Roboto, Helvetica, Arial, sans-serif; fill: #0b1220; opacity: 0.92; }
      .muted { opacity: 0.62; }
      .chip { font: 600 20px system-ui, -apple-system, Segoe UI, Roboto, Helvetica, Arial, sans-serif; fill: #0b1220; }
      .small { font: 500 18px system-ui, -apple-system, Segoe UI, Roboto, Helvetica, Arial, sans-serif; fill: #0b1220; opacity: 0.78; }
      .iconStroke { stroke: #0b1220; stroke-width: 2.2; stroke-linecap: round; stroke-linejoin: round; fill: none; opacity: 0.9; }
      .iconFill { fill: #0b1220; opacity: 0.9; }
    </style>
  </defs>

  <!-- Base -->
  <rect width="1600" height="900" fill="url(#bgBlue)"/>
  <rect width="1600" height="900" fill="url(#accentCyan)"/>

  <!-- White diagonal zone -->
  <path d="M 280 0 L 1600 0 L 1600 900 L 660 900 Z" fill="rgba(255,255,255,0.94)"/>
  <path d="M 280 0 L 660 900" stroke="rgba(0,0,0,0.08)" stroke-width="2"/>

  <!-- Left decorative stripes -->
  <rect x="60"  y="0" width="2" height="900" fill="rgba(255,255,255,0.12)"/>
  <rect x="140" y="0" width="1" height="900" fill="rgba(255,255,255,0.09)"/>
  <rect x="220" y="0" width="2" height="900" fill="rgba(255,255,255,0.12)"/>

  <!-- Card panel -->
  <g filter="url(#softShadow)">
    <rect x="360" y="140" width="1160" height="620" rx="18" fill="rgba(255,255,255,0.92)" stroke="rgba(30,41,59,0.10)" stroke-width="1"/>
  </g>

  <!-- Brand mark (optional) -->
  <g opacity="0.9">
    <circle cx="110" cy="110" r="26" fill="rgba(255,255,255,0.18)"/>
    <circle cx="110" cy="110" r="10" fill="rgba(255,255,255,0.25)"/>
    <text x="150" y="118" class="small" fill="rgba(255,255,255,0.9)" opacity="0.95">Business Card</text>
  </g>

  <!-- Avatar -->
  <g>
    <circle cx="460" cy="260" r="92" fill="rgba(15,23,42,0.08)"/>
    <image id="avatarImage" x="372" y="172" width="176" height="176"
           href="data:image/svg+xml,%3Csvg xmlns='http://www.w3.org/2000/svg' width='176' height='176'%3E%3Crect width='176' height='176' fill='%23e2e8f0'/%3E%3Ctext x='50%25' y='54%25' dominant-baseline='middle' text-anchor='middle' font-family='system-ui,Segoe UI,Roboto,Arial' font-size='42' fill='%2364758b'%3EAV%3C/text%3E%3C/svg%3E"
           clip-path="url(#avatarClip)" preserveAspectRatio="xMidYMid slice"/>
    <text x="460" y="372" text-anchor="middle" class="small muted" id="avatarHint">Avatar</text>
  </g>

  <!-- Name + title -->
  <text x="600" y="240" class="h1" id="fullName">Your Name</text>
  <text x="600" y="286" class="h2" id="jobTitle">Job Title / Role</text>

  <!-- Quick chips -->
  <g>
    <rect x="600" y="310" rx="16" ry="16" width="260" height="44" fill="rgba(59,130,246,0.12)" stroke="rgba(59,130,246,0.25)"/>
    <text x="620" y="340" class="chip" id="companyName">Company / Brand</text>

    <rect x="880" y="310" rx="16" ry="16" width="300" height="44" fill="rgba(6,182,212,0.10)" stroke="rgba(6,182,212,0.22)"/>
    <text x="900" y="340" class="chip" id="tagline">Short tagline (optional)</text>
  </g>

  <!-- Divider -->
  <line x1="420" y1="410" x2="1480" y2="410" stroke="rgba(30,41,59,0.10)" stroke-width="2"/>

  <!-- Left column: contact -->
  <g transform="translate(420, 452)">
    <!-- Phone -->
    <g>
      <circle cx="18" cy="18" r="18" fill="rgba(30,41,59,0.06)"/>
      <path class="iconStroke" d="M12 13c2 6 7 11 13 13 1 .3 2 .1 2.8-.7l2.2-2.2c.6-.6.5-1.5-.2-2l-3.6-2.1c-.6-.3-1.3-.2-1.8.3l-1.2 1.2c-2.7-1.5-4.9-3.7-6.4-6.4l1.2-1.2c.5-.5.6-1.2.3-1.8L16 8.2c-.5-.7-1.4-.8-2-.2L11.8 10c-.8.8-1 1.8-.7 2.9z"/>
      <text x="52" y="18" class="label">Phone</text>
      <text x="52" y="46" class="value" id="phone">+44 0000 000000</text>
    </g>

    <!-- Email -->
    <g transform="translate(0, 92)">
      <circle cx="18" cy="18" r="18" fill="rgba(30,41,59,0.06)"/>
      <path class="iconStroke" d="M9 13h18c1.1 0 2 .9 2 2v10c0 1.1-.9 2-2 2H9c-1.1 0-2-.9-2-2V15c0-1.1.9-2 2-2z"/>
      <path class="iconStroke" d="M7 16l11 7 11-7"/>
      <text x="52" y="18" class="label">Email</text>
      <text x="52" y="46" class="value" id="email">you@example.com</text>
    </g>

    <!-- Website -->
    <g transform="translate(0, 184)">
      <circle cx="18" cy="18" r="18" fill="rgba(30,41,59,0.06)"/>
      <path class="iconStroke" d="M18 6a12 12 0 1 0 0 24 12 12 0 0 0 0-24z"/>
      <path class="iconStroke" d="M6 18h24"/>
      <path class="iconStroke" d="M18 6c3.5 3.2 3.5 20.8 0 24"/>
      <path class="iconStroke" d="M18 6c-3.5 3.2-3.5 20.8 0 24"/>
      <text x="52" y="18" class="label">Website</text>
      <text x="52" y="46" class="value" id="website">https://example.com</text>
    </g>

    <!-- WhatsApp (optional) -->
    <g transform="translate(0, 276)">
      <circle cx="18" cy="18" r="18" fill="rgba(30,41,59,0.06)"/>
      <path class="iconStroke" d="M18 7a11 11 0 0 0-9.5 16.6L7 31l7.7-1.5A11 11 0 1 0 18 7z"/>
      <path class="iconStroke" d="M14 14c2 5 6 8 10 10"/>
      <text x="52" y="18" class="label">WhatsApp</text>
      <text x="52" y="46" class="value" id="whatsapp">+44 0000 000000</text>
    </g>
  </g>

  <!-- Right column: address + socials -->
  <g transform="translate(980, 452)">
    <!-- Address -->
    <g>
      <circle cx="18" cy="18" r="18" fill="rgba(30,41,59,0.06)"/>
      <path class="iconStroke" d="M18 30s9-8.2 9-15a9 9 0 0 0-18 0c0 6.8 9 15 9 15z"/>
      <circle cx="18" cy="15" r="3" class="iconFill"/>
      <text x="52" y="18" class="label">Address</text>

      <text x="52" y="46" class="value" id="addressLine1">123 Example Street</text>
      <text x="52" y="76" class="value" id="addressLine2">Area / District</text>
      <text x="52" y="106" class="value" id="addressCity">London</text>
      <text x="52" y="136" class="value" id="addressPostcode">SE1 0AA</text>
      <text x="52" y="166" class="value" id="addressCountry">United Kingdom</text>
    </g>

    <!-- Socials -->
    <g transform="translate(0, 220)">
      <text x="0" y="0" class="label">Social</text>

      <!-- Instagram -->
      <g transform="translate(0, 24)">
        <circle cx="18" cy="18" r="18" fill="rgba(30,41,59,0.06)"/>
        <rect x="10.5" y="10.5" width="15" height="15" rx="4" class="iconStroke"/>
        <circle cx="18" cy="18" r="4" class="iconStroke"/>
        <circle cx="23.5" cy="12.5" r="1.2" class="iconFill"/>
        <text x="52" y="18" class="label">Instagram</text>
        <text x="52" y="46" class="value" id="instagram">@yourhandle</text>
      </g>

      <!-- LinkedIn -->
      <g transform="translate(0, 96)">
        <circle cx="18" cy="18" r="18" fill="rgba(30,41,59,0.06)"/>
        <rect x="11" y="15" width="4" height="13" class="iconFill"/>
        <rect x="17" y="18" width="4" height="10" class="iconFill"/>
        <rect x="23" y="19" width="4" height="9" class="iconFill"/>
        <circle cx="13" cy="12" r="2" class="iconFill"/>
        <text x="52" y="18" class="label">LinkedIn</text>
        <text x="52" y="46" class="value" id="linkedin">linkedin.com/in/you</text>
      </g>

      <!-- X / Twitter -->
      <g transform="translate(0, 168)">
        <circle cx="18" cy="18" r="18" fill="rgba(30,41,59,0.06)"/>
        <path class="iconStroke" d="M12 12l12 16M24 12L12 28"/>
        <text x="52" y="18" class="label">X</text>
        <text x="52" y="46" class="value" id="xHandle">@yourx</text>
      </g>

      <!-- Facebook -->
      <g transform="translate(0, 240)">
        <circle cx="18" cy="18" r="18" fill="rgba(30,41,59,0.06)"/>
        <path class="iconStroke" d="M20 30v-9h3l1-4h-4v-3c0-1 .3-2 2-2h2V8h-3c-4 0-6 2-6 6v3h-3v4h3v9"/>
        <text x="52" y="18" class="label">Facebook</text>
        <text x="52" y="46" class="value" id="facebook">facebook.com/you</text>
      </g>
    </g>
  </g>

  <!-- Footer note -->
  <text x="420" y="742" class="small" id="footerNote">Scan or save this card • Update fields via IDs in your app</text>

  <!-- Optional QR placeholder -->
  <g transform="translate(1380, 656)">
    <rect x="0" y="0" width="120" height="120" rx="12" fill="rgba(15,23,42,0.06)" stroke="rgba(30,41,59,0.10)"/>
    <text x="60" y="68" text-anchor="middle" class="small muted" id="qrHint">QR</text>
  </g>
  <g id="nb_editable" aria-label="Editable overlay">
    <rect id="box_companyName" x="140" y="120" width="820" height="56" opacity="0" fill="none"/>
    <text id="field_companyName" x="140" y="160" font-size="40" font-weight="900" font-family="Inter, system-ui, -apple-system, Segoe UI, Roboto, Arial, sans-serif" fill="var(--nb-text,#0B1220)" text-anchor="start">Company Name</text>
    <rect id="box_fullName" x="140" y="180" width="820" height="80" opacity="0" fill="none"/>
    <text id="field_fullName" x="140" y="240" font-size="62" font-weight="900" font-family="Inter, system-ui, -apple-system, Segoe UI, Roboto, Arial, sans-serif" fill="var(--nb-text,#0B1220)" text-anchor="start">Full Name</text>
    <rect id="box_jobTitle" x="140" y="268" width="820" height="46" opacity="0" fill="none"/>
    <text id="field_jobTitle" x="140" y="300" font-size="34" font-weight="650" font-family="Inter, system-ui, -apple-system, Segoe UI, Roboto, Arial, sans-serif" fill="var(--nb-text,#0B1220)" text-anchor="start">Job Title</text>
    <rect id="box_phone" x="140" y="384" width="720" height="44" opacity="0" fill="none"/>
    <text id="field_phone" x="140" y="420" font-size="32" font-weight="700" font-family="Inter, system-ui, -apple-system, Segoe UI, Roboto, Arial, sans-serif" fill="var(--nb-text,#0B1220)" text-anchor="start">+44 00 0000 0000</text>
    <rect id="box_email" x="140" y="444" width="720" height="44" opacity="0" fill="none"/>
    <text id="field_email" x="140" y="480" font-size="32" font-weight="700" font-family="Inter, system-ui, -apple-system, Segoe UI, Roboto, Arial, sans-serif" fill="var(--nb-text,#0B1220)" text-anchor="start">name@email.com</text>
    <rect id="box_website" x="140" y="504" width="720" height="44" opacity="0" fill="none"/>
    <text id="field_website" x="140" y="540" font-size="32" font-weight="700" font-family="Inter, system-ui, -apple-system, Segoe UI, Roboto, Arial, sans-serif" fill="var(--nb-text,#0B1220)" text-anchor="start">www.example.com</text>
    <rect id="box_addressLine1" x="140" y="576" width="760" height="38" opacity="0" fill="none"/>
    <text id="field_addressLine1" x="140" y="610" font-size="28" font-weight="650" font-family="Inter, system-ui, -apple-system, Segoe UI, Roboto, Arial, sans-serif" fill="var(--nb-text,#0B1220)" text-anchor="start">Address line 1</text>
    <rect id="box_profilePhoto" x="1180" y="110" width="300" height="300" rx="34" opacity="0" fill="none"/>
    <clipPath id="clip_profilePhoto"><rect x="1180" y="110" width="300" height="300" rx="34"/></clipPath>
    <image id="slot_profilePhoto" href="" x="1180" y="110" width="300" height="300" preserveAspectRatio="xMidYMid slice" clip-path="url(#clip_profilePhoto)"/>
    <rect x="1180" y="110" width="300" height="300" rx="34" fill="none" stroke="rgba(148,163,184,0.55)" stroke-dasharray="10 10"/>
    <rect id="box_qr" x="1180" y="430" width="300" height="300" rx="26" opacity="0" fill="none"/>
    <clipPath id="clip_qr"><rect x="1180" y="430" width="300" height="300" rx="26"/></clipPath>
    <image id="slot_qr" href="" x="1180" y="430" width="300" height="300" preserveAspectRatio="xMidYMid meet" clip-path="url(#clip_qr)"/>
    <rect x="1180" y="430" width="300" height="300" rx="26" fill="none" stroke="rgba(148,163,184,0.55)" stroke-dasharray="10 10"/>
    <rect id="box_barcode" x="140" y="670" width="820" height="90" rx="16" opacity="0" fill="none"/>
    <clipPath id="clip_barcode"><rect x="140" y="670" width="820" height="90" rx="16"/></clipPath>
    <image id="slot_barcode" href="" x="140" y="670" width="820" height="90" preserveAspectRatio="xMidYMid meet" clip-path="url(#clip_barcode)"/>
    <rect x="140" y="670" width="820" height="90" rx="16" fill="none" stroke="rgba(148,163,184,0.55)" stroke-dasharray="10 10"/>
    <rect id="box_logo" x="140" y="70" width="240" height="110" rx="18" opacity="0" fill="none"/>
    <clipPath id="clip_logo"><rect x="140" y="70" width="240" height="110" rx="18"/></clipPath>
    <image id="slot_logo" href="" x="140" y="70" width="240" height="110" preserveAspectRatio="xMidYMid meet" clip-path="url(#clip_logo)"/>
    <rect x="140" y="70" width="240" height="110" rx="18" fill="none" stroke="rgba(148,163,184,0.55)" stroke-dasharray="10 10"/>
  </g>

</svg>
