<svg xmlns="http://www.w3.org/2000/svg" width="1024" height="1536" viewBox="0 0 1024 1536" fill="none">
  <metadata>Generated 2026-02-15T20:18:58.520292Z</metadata>

  <defs>
    <linearGradient id="nb_goldStroke" x1="0" y1="0" x2="1" y2="1">
      <stop offset="0" stop-color="#F6E27A"/>
      <stop offset="0.25" stop-color="#C89B2D"/>
      <stop offset="0.5" stop-color="#F2D06B"/>
      <stop offset="0.75" stop-color="#B8871E"/>
      <stop offset="1" stop-color="#F7E58B"/>
    </linearGradient>
    <radialGradient id="nb_goldBall" cx="35%" cy="30%" r="80%">
      <stop offset="0" stop-color="#FFF2B8"/>
      <stop offset="0.35" stop-color="#F2D06B"/>
      <stop offset="0.7" stop-color="#C58E1C"/>
      <stop offset="1" stop-color="#8A5B08"/>
    </radialGradient>

    <linearGradient id="nb_darkBg" x1="0" y1="0" x2="1" y2="1">
      <stop offset="0" stop-color="#0B0F17"/>
      <stop offset="0.5" stop-color="#111827"/>
      <stop offset="1" stop-color="#05070B"/>
    </linearGradient>

    <linearGradient id="nb_blueA" x1="0" y1="0" x2="1" y2="1">
      <stop offset="0" stop-color="#0B2C6B"/>
      <stop offset="0.5" stop-color="#0EA5E9"/>
      <stop offset="1" stop-color="#083B8F"/>
    </linearGradient>

    <linearGradient id="nb_blueB" x1="1" y1="0" x2="0" y2="1">
      <stop offset="0" stop-color="#E0F2FE"/>
      <stop offset="0.35" stop-color="#7DD3FC"/>
      <stop offset="1" stop-color="#1D4ED8"/>
    </linearGradient>

    <filter id="nb_softShadow" x="-20%" y="-20%" width="140%" height="140%">
      <feDropShadow dx="0" dy="10" stdDeviation="18" flood-color="#000" flood-opacity="0.25"/>
    </filter>

    <style>
      :root{
        --nb-bg: #ffffff;
        --nb-panel: rgba(255,255,255,0.9);
        --nb-text: #0B1220;
        --nb-muted: #334155;
        --nb-accent: #0EA5E9;
        --nb-accent2: #1D4ED8;
        --nb-gold: #C89B2D;
      }
      .nb_text{font-family: Inter, system-ui, -apple-system, Segoe UI, Roboto, Arial, sans-serif; fill: var(--nb-text);}
      .nb_muted{fill: var(--nb-muted);}
    </style>
  </defs>

  <rect x="0" y="0" width="1024" height="1536" fill="url(#nb_blueB)"/>
  <rect x="-400" y="120" width="1924" height="320" fill="url(#nb_blueA)" opacity="0.2" transform="rotate(20 512.0 768.0)"/>
  <rect x="-240" y="380" width="1924" height="320" fill="url(#nb_blueA)" opacity="0.16" transform="rotate(20 512.0 768.0)"/>
  <rect x="-80" y="640" width="1924" height="320" fill="url(#nb_blueA)" opacity="0.12" transform="rotate(20 512.0 768.0)"/>
  <rect x="64" y="76" width="896" height="250" rx="42" fill="rgba(255,255,255,0.84)" filter="url(#nb_softShadow)"/>
  <rect x="64" y="360" width="896" height="1016" rx="52" fill="rgba(255,255,255,0.92)" filter="url(#nb_softShadow)"/>
  <path d="M 604 1126 H 960 V 1472 H 604 Q 564 1472 564 1432 V 1166 Q 564 1126 604 1126 Z" fill="rgba(13,38,84,0.92)"/>
  <rect x="0" y="1408" width="1024" height="128" fill="rgba(2,6,23,0.78)"/>
  <rect x="738" y="168" width="200" height="200" rx="22" fill="rgba(14,165,233,0.38)" transform="rotate(12 838 268)"/>
  <rect x="768" y="188" width="200" height="200" rx="22" fill="rgba(255,255,255,0.22)" transform="rotate(12 868 288)"/>
  <g id="nb_editable" aria-label="Editable overlay">
    <rect id="box_brandName" x="160" y="250" width="704" height="60" opacity="0" fill="none"/>
    <text id="field_brandName" x="512" y="290" font-size="40" font-weight="800" text-anchor="middle" class="nb_text">Your Brand / Company</text>
    <rect id="box_headline" x="120" y="390" width="784" height="72" opacity="0" fill="none"/>
    <text id="field_headline" x="512" y="442" font-size="58" font-weight="900" text-anchor="middle" class="nb_text">Main Headline</text>
    <rect id="box_subHeadline" x="120" y="468" width="784" height="58" opacity="0" fill="none"/>
    <text id="field_subHeadline" x="512" y="510" font-size="40" font-weight="700" text-anchor="middle" class="nb_text">Support line / Offer</text>
    <rect id="box_descriptionLine1" x="160" y="580" width="704" height="36" opacity="0" fill="none"/>
    <text id="field_descriptionLine1" x="512" y="610" font-size="26" font-weight="500" text-anchor="middle" class="nb_text">Short description line 1</text>
    <rect id="box_descriptionLine2" x="160" y="616" width="704" height="36" opacity="0" fill="none"/>
    <text id="field_descriptionLine2" x="512" y="646" font-size="26" font-weight="500" text-anchor="middle" class="nb_text">Short description line 2</text>
    <rect id="box_featuresTitle" x="120" y="770" width="520" height="44" opacity="0" fill="none"/>
    <text id="field_featuresTitle" x="140" y="804" font-size="34" font-weight="900" text-anchor="start" class="nb_text">CORE FEATURES</text>
    <rect id="box_feature1" x="160" y="842" width="520" height="36" opacity="0" fill="none"/>
    <text id="field_feature1" x="170" y="872" font-size="28" font-weight="600" text-anchor="start" class="nb_text">• Feature one</text>
    <rect id="box_feature2" x="160" y="884" width="520" height="36" opacity="0" fill="none"/>
    <text id="field_feature2" x="170" y="914" font-size="28" font-weight="600" text-anchor="start" class="nb_text">• Feature two</text>
    <rect id="box_feature3" x="160" y="926" width="520" height="36" opacity="0" fill="none"/>
    <text id="field_feature3" x="170" y="956" font-size="28" font-weight="600" text-anchor="start" class="nb_text">• Feature three</text>
    <rect id="box_feature4" x="160" y="968" width="520" height="36" opacity="0" fill="none"/>
    <text id="field_feature4" x="170" y="998" font-size="28" font-weight="600" text-anchor="start" class="nb_text">• Feature four</text>
    <rect id="box_designedForTitle" x="120" y="1072" width="520" height="44" opacity="0" fill="none"/>
    <text id="field_designedForTitle" x="140" y="1106" font-size="34" font-weight="900" text-anchor="start" class="nb_text">DESIGNED FOR</text>
    <rect id="box_audience1" x="160" y="1146" width="520" height="34" opacity="0" fill="none"/>
    <text id="field_audience1" x="170" y="1174" font-size="26" font-weight="600" text-anchor="start" class="nb_text">• Audience 1</text>
    <rect id="box_audience2" x="160" y="1184" width="520" height="34" opacity="0" fill="none"/>
    <text id="field_audience2" x="170" y="1212" font-size="26" font-weight="600" text-anchor="start" class="nb_text">• Audience 2</text>
    <rect id="box_audience3" x="160" y="1222" width="520" height="34" opacity="0" fill="none"/>
    <text id="field_audience3" x="170" y="1250" font-size="26" font-weight="600" text-anchor="start" class="nb_text">• Audience 3</text>
    <rect id="box_scanLabel" x="650" y="1080" width="300" height="40" opacity="0" fill="none"/>
    <text id="field_scanLabel" x="820" y="1110" font-size="28" font-weight="800" text-anchor="middle" class="nb_text">SCAN TO ACCESS</text>
    <rect id="box_url" x="610" y="1440" width="420" height="28" opacity="0" fill="none"/>
    <text id="field_url" x="820" y="1462" font-size="22" font-weight="700" text-anchor="middle" class="nb_text">https://example.com</text>
    <rect id="box_footerNote" x="120" y="1490" width="784" height="28" opacity="0" fill="none"/>
    <text id="field_footerNote" x="512" y="1512" font-size="20" font-weight="600" text-anchor="middle" class="nb_text">UK-based • Online • Accessible Worldwide</text>
    <rect id="box_logo" x="420" y="110" width="184" height="184" rx="30" opacity="0" fill="none"/>
    <clipPath id="clip_logo"><rect x="420" y="110" width="184" height="184" rx="30"/></clipPath>
    <image id="slot_logo" href="" x="420" y="110" width="184" height="184" preserveAspectRatio="xMidYMid meet" clip-path="url(#clip_logo)"/>
    <rect x="420" y="110" width="184" height="184" rx="30" fill="none" stroke="rgba(148,163,184,0.55)" stroke-dasharray="10 10"/>
    <rect id="box_qr" x="710" y="1180" width="220" height="220" rx="20" opacity="0" fill="none"/>
    <clipPath id="clip_qr"><rect x="710" y="1180" width="220" height="220" rx="20"/></clipPath>
    <image id="slot_qr" href="" x="710" y="1180" width="220" height="220" preserveAspectRatio="xMidYMid meet" clip-path="url(#clip_qr)"/>
    <rect x="710" y="1180" width="220" height="220" rx="20" fill="none" stroke="rgba(148,163,184,0.55)" stroke-dasharray="10 10"/>
  </g>
</svg>