<?xml version="1.0" encoding="UTF-8"?>
<svg xmlns="http://www.w3.org/2000/svg" width="1600" height="900" viewBox="0 0 1600 900">
  <defs>
    <radialGradient id="mbl-glow" cx="50%" cy="50%">
      <stop offset="0%" stop-color="#1e293b" stop-opacity="0.4"/>
      <stop offset="100%" stop-color="#0f172a" stop-opacity="0"/>
    </radialGradient>
    <linearGradient id="mbl-bg" x1="0" y1="0" x2="1" y2="1">
      <stop offset="0%" stop-color="#0b1220"/>
      <stop offset="50%" stop-color="#111827"/>
      <stop offset="100%" stop-color="#0f172a"/>
    </linearGradient>
  </defs>

  <!-- Base gradient -->
  <rect width="1600" height="900" fill="url(#mbl-bg)"/>

  <!-- Radial glow -->
  <ellipse cx="800" cy="450" rx="700" ry="500" fill="url(#mbl-glow)"/>

  <!-- Content panel area -->
  <rect x="120" y="180" width="720" height="540" rx="16" fill="rgba(255,255,255,0.025)" stroke="rgba(148,163,184,0.15)" stroke-width="1"/>

  <!-- Elegant curved lines -->
  <path d="M 200 250 Q 500 200, 800 250 T 1400 250" fill="none" stroke="#94a3b8" stroke-width="1" opacity="0.3"/>
  <path d="M 200 650 Q 500 700, 800 650 T 1400 650" fill="none" stroke="#94a3b8" stroke-width="1" opacity="0.3"/>

  <!-- Corner brackets -->
  <path d="M 120 180 L 120 220 M 120 180 L 160 180" stroke="#94a3b8" stroke-width="2" opacity="0.4"/>
  <path d="M 840 180 L 800 180 M 840 180 L 840 220" stroke="#94a3b8" stroke-width="2" opacity="0.4"/>
  <path d="M 120 720 L 120 680 M 120 720 L 160 720" stroke="#94a3b8" stroke-width="2" opacity="0.4"/>
  <path d="M 840 720 L 800 720 M 840 720 L 840 680" stroke="#94a3b8" stroke-width="2" opacity="0.4"/>

  <!-- Blue accent mark -->
  <circle cx="1350" cy="450" r="8" fill="#3b82f6" opacity="0.6"/>
  <circle cx="1350" cy="450" r="14" fill="none" stroke="#3b82f6" stroke-width="1" opacity="0.3"/>

  <!-- Dot pattern -->
  <circle cx="1100" cy="200" r="1.5" fill="#94a3b8" opacity="0.2"/>
  <circle cx="1150" cy="220" r="1.5" fill="#94a3b8" opacity="0.2"/>
  <circle cx="1200" cy="200" r="1.5" fill="#94a3b8" opacity="0.2"/>
  <circle cx="1100" cy="700" r="1.5" fill="#94a3b8" opacity="0.2"/>
  <circle cx="1150" cy="680" r="1.5" fill="#94a3b8" opacity="0.2"/>
  <circle cx="1200" cy="700" r="1.5" fill="#94a3b8" opacity="0.2"/>

  <!-- Vertical divider hint -->
  <line x1="950" y1="250" x2="950" y2="650" stroke="#94a3b8" stroke-width="1" opacity="0.2"/>

  <!-- Bottom edge line -->
  <line x1="120" y1="850" x2="1480" y2="850" stroke="#94a3b8" stroke-width="1" opacity="0.15"/>
</svg>
