<?xml version="1.0" encoding="UTF-8"?>
<svg xmlns="http://www.w3.org/2000/svg" width="1600" height="900" viewBox="0 0 1600 900">
  <defs>
    <linearGradient id="mg-l-navy" x1="0" y1="0" x2="1" y2="1">
      <stop offset="0%" stop-color="#0f172a"/>
      <stop offset="100%" stop-color="#1e293b"/>
    </linearGradient>
    <linearGradient id="mg-l-blue" x1="0" y1="0" x2="0.6" y2="1">
      <stop offset="0%" stop-color="#2563eb"/>
      <stop offset="100%" stop-color="#0ea5e9"/>
    </linearGradient>
    <linearGradient id="mg-l-amber" x1="0" y1="0" x2="1" y2="0">
      <stop offset="0%" stop-color="#f59e0b"/>
      <stop offset="100%" stop-color="#f97316"/>
    </linearGradient>
  </defs>

  <!-- White base -->
  <rect width="1600" height="900" fill="#ffffff"/>

  <!-- Top-left navy diagonal block -->
  <polygon points="0,0 580,0 280,450 0,450" fill="url(#mg-l-navy)"/>
  <polygon points="0,0 520,0 240,420 0,420" fill="#0f172a" opacity="0.7"/>

  <!-- Bottom-right navy diagonal block -->
  <polygon points="1600,900 1020,900 1320,450 1600,450" fill="url(#mg-l-navy)"/>
  <polygon points="1600,900 1080,900 1360,480 1600,480" fill="#0f172a" opacity="0.7"/>

  <!-- Blue rotated rectangle accent -->
  <g transform="translate(1200, 200) rotate(45)">
    <rect x="0" y="0" width="220" height="220" rx="8" fill="url(#mg-l-blue)"/>
    <rect x="12" y="12" width="196" height="196" rx="4" fill="none" stroke="rgba(255,255,255,0.3)" stroke-width="2"/>
  </g>

  <!-- Orange accent lines -->
  <line x1="520" y1="0" x2="220" y2="480" stroke="url(#mg-l-amber)" stroke-width="3" opacity="0.85"/>
  <line x1="1080" y1="900" x2="1380" y2="420" stroke="url(#mg-l-amber)" stroke-width="3" opacity="0.85"/>

  <!-- Subtle grid on white area -->
  <line x1="400" y1="100" x2="400" y2="800" stroke="#e2e8f0" stroke-width="0.5" opacity="0.5"/>
  <line x1="300" y1="500" x2="1050" y2="500" stroke="#e2e8f0" stroke-width="0.5" opacity="0.5"/>

  <!-- Decorative dots -->
  <circle cx="1050" cy="650" r="3" fill="#2563eb" opacity="0.25"/>
  <circle cx="1070" cy="670" r="2" fill="#0ea5e9" opacity="0.2"/>
  <circle cx="1040" cy="680" r="2.5" fill="#f59e0b" opacity="0.2"/>

  <!-- QR zone hint -->
  <rect x="1060" y="540" width="160" height="160" rx="8" fill="rgba(241,245,249,0.6)" stroke="#e2e8f0" stroke-width="1" stroke-dasharray="4 3"/>

  <!-- Bottom accent -->
  <rect x="300" y="860" width="300" height="3" rx="1.5" fill="#2563eb" opacity="0.15"/>
  <rect x="300" y="868" width="200" height="2" rx="1" fill="#0ea5e9" opacity="0.1"/>
</svg>
