<?xml version="1.0" encoding="UTF-8"?>
<svg xmlns="http://www.w3.org/2000/svg" width="1600" height="900" viewBox="0 0 1600 900">
  <defs>
    <linearGradient id="abd-blue" x1="0" y1="0" x2="1" y2="1">
      <stop offset="0%" stop-color="#1439B2" />
      <stop offset="50%" stop-color="#3B85FF" />
      <stop offset="100%" stop-color="#2164F7" />
    </linearGradient>
    <linearGradient id="abd-cyan" x1="0" y1="0" x2="1" y2="0">
      <stop offset="0%" stop-color="#00B4D3" stop-opacity="0.3" />
      <stop offset="100%" stop-color="#00B4D3" stop-opacity="0" />
    </linearGradient>
  <clipPath id="nb-premium-address-blue-diagonal-landscape-clip"><rect x="0.0" y="0.0" width="1600.0" height="900.0" rx="36.0" ry="36.0" /></clipPath><filter id="nb-premium-address-blue-diagonal-landscape-bevel" x="-2%" y="-2%" width="104%" height="104%" color-interpolation-filters="sRGB"><feDropShadow dx="-1" dy="-1" stdDeviation="1.5" flood-color="#FFFFFF" flood-opacity="0.12" result="highlight" /><feDropShadow dx="1.5" dy="1.5" stdDeviation="2" flood-color="#000000" flood-opacity="0.10" result="shadow" /><feMerge><feMergeNode in="shadow" /><feMergeNode in="highlight" /><feMergeNode in="SourceGraphic" /></feMerge></filter></defs>

  
  <g clip-path="url(#nb-premium-address-blue-diagonal-landscape-clip)" filter="url(#nb-premium-address-blue-diagonal-landscape-bevel)"><rect width="1600" height="900" fill="url(#abd-blue)" />

  
  <rect x="0" y="0" width="1600" height="900" fill="url(#abd-cyan)" />

  
  <path d="M 300 0 L 1600 0 L 1600 900 L 700 900 Z" fill="rgba(255,255,255,0.92)" />

  
  <path d="M 300 0 L 700 900" stroke="rgba(0,0,0,0.08)" stroke-width="2" />

  
  <rect x="50" y="0" width="2" height="900" fill="rgba(255,255,255,0.1)" />
  <rect x="150" y="0" width="1" height="900" fill="rgba(255,255,255,0.08)" />
  <rect x="220" y="0" width="2" height="900" fill="rgba(255,255,255,0.1)" />

  
  <path d="M 350 50 L 350 120 M 350 50 L 420 50" stroke="rgba(27,39,58,0.3)" stroke-width="2" />
  <path d="M 1550 50 L 1480 50 M 1550 50 L 1550 120" stroke="rgba(27,39,58,0.3)" stroke-width="2" />
  <path d="M 750 850 L 750 780 M 750 850 L 820 850" stroke="rgba(27,39,58,0.3)" stroke-width="2" />
  <path d="M 1550 850 L 1480 850 M 1550 850 L 1550 780" stroke="rgba(27,39,58,0.3)" stroke-width="2" />

  
  <rect x="380" y="180" width="1100" height="540" rx="12" fill="none" stroke="rgba(27,39,58,0.08)" stroke-width="1" stroke-dasharray="8 4" />

  
  <circle cx="150" cy="200" r="6" fill="rgba(255,255,255,0.3)" />
  <circle cx="180" cy="240" r="4" fill="rgba(255,255,255,0.25)" />
  <circle cx="120" cy="260" r="5" fill="rgba(255,255,255,0.28)" />

  <circle cx="150" cy="700" r="6" fill="rgba(255,255,255,0.3)" />
  <circle cx="180" cy="660" r="4" fill="rgba(255,255,255,0.25)" />
  <circle cx="120" cy="640" r="5" fill="rgba(255,255,255,0.28)" />

  
  <circle cx="1400" cy="150" r="3" fill="rgba(27,39,58,0.15)" />
  <circle cx="1420" cy="170" r="2" fill="rgba(27,39,58,0.12)" />
  <circle cx="1440" cy="150" r="2.5" fill="rgba(27,39,58,0.13)" />

  
  <line x1="380" y1="780" x2="780" y2="780" stroke="rgba(27,39,58,0.15)" stroke-width="2" />
</g></svg>
