<?xml version="1.0" encoding="UTF-8"?>
<svg xmlns="http://www.w3.org/2000/svg" width="800" height="1200" viewBox="0 0 800 1200">
  <defs>
    <linearGradient id="fpp-gradient" x1="0" y1="0" x2="0.3" y2="1">
      <stop offset="0%" stop-color="#6467F9" />
      <stop offset="100%" stop-color="#8E5DFF" />
    </linearGradient>
  <clipPath id="nb-premium-flyer-promo-portrait-clip"><rect x="0.0" y="0.0" width="800.0" height="1200.0" rx="32.0" ry="32.0" /></clipPath><filter id="nb-premium-flyer-promo-portrait-bevel" x="-2%" y="-2%" width="104%" height="104%" color-interpolation-filters="sRGB"><feDropShadow dx="-1" dy="-1" stdDeviation="1.5" flood-color="#FFFFFF" flood-opacity="0.12" result="highlight" /><feDropShadow dx="1.5" dy="1.5" stdDeviation="2" flood-color="#000000" flood-opacity="0.10" result="shadow" /><feMerge><feMergeNode in="shadow" /><feMergeNode in="highlight" /><feMergeNode in="SourceGraphic" /></feMerge></filter></defs>

  
  <g clip-path="url(#nb-premium-flyer-promo-portrait-clip)" filter="url(#nb-premium-flyer-promo-portrait-bevel)"><rect width="800" height="1200" fill="url(#fpp-gradient)" />

  
  <g opacity="0.15">
    <circle cx="100" cy="100" r="2" fill="white" />
    <circle cx="700" cy="100" r="2" fill="white" />
    <circle cx="400" cy="250" r="2" fill="white" />
    <circle cx="200" cy="400" r="2" fill="white" />
    <circle cx="600" cy="400" r="2" fill="white" />
    <circle cx="300" cy="550" r="2" fill="white" />
    <circle cx="500" cy="700" r="2" fill="white" />
    <circle cx="150" cy="850" r="2" fill="white" />
    <circle cx="650" cy="850" r="2" fill="white" />
  </g>

  
  <rect x="0" y="0" width="800" height="200" fill="rgba(0,0,0,0.2)" />
  <rect x="40" y="80" width="720" height="80" rx="12" fill="rgba(255,255,255,0.1)" stroke="rgba(255,255,255,0.2)" stroke-width="1" />

  
  <rect x="40" y="240" width="720" height="720" rx="16" fill="rgba(255,255,255,0.95)" stroke="rgba(0,0,0,0.05)" stroke-width="1" />

  
  <rect x="80" y="520" width="640" height="100" rx="12" fill="rgba(100,103,249,0.08)" stroke="rgba(100,103,249,0.2)" stroke-width="1" />

  
  <rect x="0" y="1080" width="800" height="120" fill="rgba(0,0,0,0.8)" />

  
  <circle cx="120" cy="120" r="30" fill="rgba(255,255,255,0.08)" />
  <circle cx="680" cy="120" r="25" fill="rgba(255,255,255,0.06)" />
  <circle cx="120" cy="1020" r="20" fill="rgba(255,255,255,0.05)" />
  <circle cx="680" cy="1020" r="28" fill="rgba(255,255,255,0.07)" />
</g></svg>
