<?xml version="1.0" encoding="UTF-8"?>
<svg xmlns="http://www.w3.org/2000/svg" width="1600" height="900" viewBox="0 0 1600 900">
  <defs>
    <radialGradient id="mbl-glow" cx="50%" cy="50%">
      <stop offset="0%" stop-color="#1B273A" stop-opacity="0.4" />
      <stop offset="100%" stop-color="#0C152A" stop-opacity="0" />
    </radialGradient>
    <linearGradient id="mbl-bg" x1="0" y1="0" x2="1" y2="1">
      <stop offset="0%" stop-color="#091120" />
      <stop offset="50%" stop-color="#0F1627" />
      <stop offset="100%" stop-color="#0C152A" />
    </linearGradient>
  <clipPath id="nb-premium-minimal-black-landscape-clip"><rect x="0.0" y="0.0" width="1600.0" height="900.0" rx="36.0" ry="36.0" /></clipPath><filter id="nb-premium-minimal-black-landscape-bevel" x="-2%" y="-2%" width="104%" height="104%" color-interpolation-filters="sRGB"><feDropShadow dx="-1" dy="-1" stdDeviation="1.5" flood-color="#FFFFFF" flood-opacity="0.12" result="highlight" /><feDropShadow dx="1.5" dy="1.5" stdDeviation="2" flood-color="#000000" flood-opacity="0.10" result="shadow" /><feMerge><feMergeNode in="shadow" /><feMergeNode in="highlight" /><feMergeNode in="SourceGraphic" /></feMerge></filter></defs>

  
  <g clip-path="url(#nb-premium-minimal-black-landscape-clip)" filter="url(#nb-premium-minimal-black-landscape-bevel)"><rect width="1600" height="900" fill="url(#mbl-bg)" />

  
  <ellipse cx="800" cy="450" rx="700" ry="500" fill="url(#mbl-glow)" />

  
  <rect x="120" y="180" width="720" height="540" rx="16" fill="rgba(255,255,255,0.025)" stroke="rgba(151,167,190,0.15)" stroke-width="1" />

  
  <path d="M 200 250 Q 500 200, 800 250 T 1400 250" fill="none" stroke="#97A7BE" stroke-width="1" opacity="0.3" />
  <path d="M 200 650 Q 500 700, 800 650 T 1400 650" fill="none" stroke="#97A7BE" stroke-width="1" opacity="0.3" />

  
  <path d="M 120 180 L 120 220 M 120 180 L 160 180" stroke="#97A7BE" stroke-width="2" opacity="0.4" />
  <path d="M 840 180 L 800 180 M 840 180 L 840 220" stroke="#97A7BE" stroke-width="2" opacity="0.4" />
  <path d="M 120 720 L 120 680 M 120 720 L 160 720" stroke="#97A7BE" stroke-width="2" opacity="0.4" />
  <path d="M 840 720 L 800 720 M 840 720 L 840 680" stroke="#97A7BE" stroke-width="2" opacity="0.4" />

  
  <circle cx="1350" cy="450" r="8" fill="#3B85FF" opacity="0.6" />
  <circle cx="1350" cy="450" r="14" fill="none" stroke="#3B85FF" stroke-width="1" opacity="0.3" />

  
  <circle cx="1100" cy="200" r="1.5" fill="#97A7BE" opacity="0.2" />
  <circle cx="1150" cy="220" r="1.5" fill="#97A7BE" opacity="0.2" />
  <circle cx="1200" cy="200" r="1.5" fill="#97A7BE" opacity="0.2" />
  <circle cx="1100" cy="700" r="1.5" fill="#97A7BE" opacity="0.2" />
  <circle cx="1150" cy="680" r="1.5" fill="#97A7BE" opacity="0.2" />
  <circle cx="1200" cy="700" r="1.5" fill="#97A7BE" opacity="0.2" />

  
  <line x1="950" y1="250" x2="950" y2="650" stroke="#97A7BE" stroke-width="1" opacity="0.2" />

  
  <line x1="120" y1="850" x2="1480" y2="850" stroke="#97A7BE" stroke-width="1" opacity="0.15" />
</g></svg>
