<?xml version="1.0" encoding="UTF-8"?>
<svg xmlns="http://www.w3.org/2000/svg" width="900" height="1200" viewBox="0 0 900 1200">
  <defs>
    <radialGradient id="mbp-glow" cx="50%" cy="50%">
      <stop offset="0%" stop-color="#1B273A" stop-opacity="0.4" />
      <stop offset="100%" stop-color="#0C152A" stop-opacity="0" />
    </radialGradient>
    <linearGradient id="mbp-bg" x1="0" y1="0" x2="1" y2="1">
      <stop offset="0%" stop-color="#091120" />
      <stop offset="50%" stop-color="#0F1627" />
      <stop offset="100%" stop-color="#0C152A" />
    </linearGradient>
  <clipPath id="nb-premium-minimal-black-portrait-clip"><rect x="0.0" y="0.0" width="900.0" height="1200.0" rx="36.0" ry="36.0" /></clipPath><filter id="nb-premium-minimal-black-portrait-bevel" x="-2%" y="-2%" width="104%" height="104%" color-interpolation-filters="sRGB"><feDropShadow dx="-1" dy="-1" stdDeviation="1.5" flood-color="#FFFFFF" flood-opacity="0.12" result="highlight" /><feDropShadow dx="1.5" dy="1.5" stdDeviation="2" flood-color="#000000" flood-opacity="0.10" result="shadow" /><feMerge><feMergeNode in="shadow" /><feMergeNode in="highlight" /><feMergeNode in="SourceGraphic" /></feMerge></filter></defs>

  
  <g clip-path="url(#nb-premium-minimal-black-portrait-clip)" filter="url(#nb-premium-minimal-black-portrait-bevel)"><rect width="900" height="1200" fill="url(#mbp-bg)" />

  
  <ellipse cx="450" cy="600" rx="400" ry="550" fill="url(#mbp-glow)" />

  
  <rect x="80" y="240" width="740" height="720" rx="16" fill="rgba(255,255,255,0.025)" stroke="rgba(151,167,190,0.15)" stroke-width="1" />

  
  <path d="M 150 320 Q 450 280, 750 320" fill="none" stroke="#97A7BE" stroke-width="1" opacity="0.3" />
  <path d="M 150 880 Q 450 920, 750 880" fill="none" stroke="#97A7BE" stroke-width="1" opacity="0.3" />

  
  <path d="M 80 240 L 80 290 M 80 240 L 130 240" stroke="#97A7BE" stroke-width="2" opacity="0.4" />
  <path d="M 820 240 L 770 240 M 820 240 L 820 290" stroke="#97A7BE" stroke-width="2" opacity="0.4" />
  <path d="M 80 960 L 80 910 M 80 960 L 130 960" stroke="#97A7BE" stroke-width="2" opacity="0.4" />
  <path d="M 820 960 L 770 960 M 820 960 L 820 910" stroke="#97A7BE" stroke-width="2" opacity="0.4" />

  
  <circle cx="750" cy="600" r="8" fill="#3B85FF" opacity="0.6" />
  <circle cx="750" cy="600" r="14" fill="none" stroke="#3B85FF" stroke-width="1" opacity="0.3" />

  
  <circle cx="700" cy="150" r="1.5" fill="#97A7BE" opacity="0.2" />
  <circle cx="750" cy="170" r="1.5" fill="#97A7BE" opacity="0.2" />
  <circle cx="800" cy="150" r="1.5" fill="#97A7BE" opacity="0.2" />
  <circle cx="700" cy="1050" r="1.5" fill="#97A7BE" opacity="0.2" />
  <circle cx="750" cy="1030" r="1.5" fill="#97A7BE" opacity="0.2" />
  <circle cx="800" cy="1050" r="1.5" fill="#97A7BE" opacity="0.2" />

  
  <line x1="150" y1="600" x2="750" y2="600" stroke="#97A7BE" stroke-width="1" opacity="0.2" />

  
  <line x1="80" y1="1100" x2="820" y2="1100" stroke="#97A7BE" stroke-width="1" opacity="0.15" />
</g></svg>
