<?xml version="1.0" encoding="UTF-8"?>
<svg xmlns="http://www.w3.org/2000/svg" width="900" height="1200" viewBox="0 0 900 1200">
  <defs>
    <linearGradient id="mg-p-navy" x1="0" y1="0" x2="1" y2="1">
      <stop offset="0%" stop-color="#0C152A" />
      <stop offset="100%" stop-color="#1B273A" />
    </linearGradient>
    <linearGradient id="mg-p-blue" x1="0" y1="0" x2="0.6" y2="1">
      <stop offset="0%" stop-color="#2164F7" />
      <stop offset="100%" stop-color="#00A4EE" />
    </linearGradient>
    <linearGradient id="mg-p-amber" x1="0" y1="0" x2="1" y2="0">
      <stop offset="0%" stop-color="#FFA308" />
      <stop offset="100%" stop-color="#FF7618" />
    </linearGradient>
  <clipPath id="nb-premium-modern-geometric-portrait-clip"><rect x="0.0" y="0.0" width="900.0" height="1200.0" rx="36.0" ry="36.0" /></clipPath><filter id="nb-premium-modern-geometric-portrait-bevel" x="-2%" y="-2%" width="104%" height="104%" color-interpolation-filters="sRGB"><feDropShadow dx="-1" dy="-1" stdDeviation="1.5" flood-color="#FFFFFF" flood-opacity="0.12" result="highlight" /><feDropShadow dx="1.5" dy="1.5" stdDeviation="2" flood-color="#000000" flood-opacity="0.10" result="shadow" /><feMerge><feMergeNode in="shadow" /><feMergeNode in="highlight" /><feMergeNode in="SourceGraphic" /></feMerge></filter></defs>

  
  <g clip-path="url(#nb-premium-modern-geometric-portrait-clip)" filter="url(#nb-premium-modern-geometric-portrait-bevel)"><rect width="900" height="1200" fill="#ffffff" />

  
  <polygon points="0,0 450,0 200,400 0,400" fill="url(#mg-p-navy)" />
  <polygon points="0,0 400,0 180,360 0,360" fill="#0C152A" opacity="0.7" />

  
  <polygon points="900,1200 450,1200 700,800 900,800" fill="url(#mg-p-navy)" />
  <polygon points="900,1200 500,1200 720,840 900,840" fill="#0C152A" opacity="0.7" />

  
  <g transform="translate(650, 300) rotate(45)">
    <rect x="0" y="0" width="180" height="180" rx="8" fill="url(#mg-p-blue)" />
    <rect x="10" y="10" width="160" height="160" rx="4" fill="none" stroke="rgba(255,255,255,0.3)" stroke-width="2" />
  </g>

  
  <line x1="400" y1="0" x2="150" y2="420" stroke="url(#mg-p-amber)" stroke-width="3" opacity="0.85" />
  <line x1="500" y1="1200" x2="750" y2="780" stroke="url(#mg-p-amber)" stroke-width="3" opacity="0.85" />

  
  <line x1="250" y1="150" x2="250" y2="1050" stroke="#EAEFF5" stroke-width="0.5" opacity="0.5" />
  <line x1="150" y1="600" x2="700" y2="600" stroke="#EAEFF5" stroke-width="0.5" opacity="0.5" />

  
  <circle cx="700" cy="850" r="3" fill="#2164F7" opacity="0.25" />
  <circle cx="715" cy="870" r="2" fill="#00A4EE" opacity="0.2" />
  <circle cx="690" cy="880" r="2.5" fill="#FFA308" opacity="0.2" />

  
  <rect x="680" y="940" width="160" height="160" rx="8" fill="rgba(241,245,249,0.6)" stroke="#EAEFF5" stroke-width="1" stroke-dasharray="4 3" />

  
  <rect x="200" y="1140" width="250" height="3" rx="1.5" fill="#2164F7" opacity="0.15" />
  <rect x="200" y="1148" width="180" height="2" rx="1" fill="#00A4EE" opacity="0.1" />
</g></svg>
