<svg xmlns="http://www.w3.org/2000/svg" viewBox="0 0 1600 1000" role="img" aria-labelledby="bank-01-bg-title bank-01-bg-desc">
  <title id="bank-01-bg-title">Secure Navy — Bank Details Background</title>
  <desc id="bank-01-bg-desc">Professional bank template with navy gradient, shield security pattern, and payment clarity</desc>
  <defs>
    <linearGradient id="bank-01-base" x1="0%" y1="0%" x2="100%" y2="100%">
      <stop offset="0%" style="stop-color:#0F172A;stop-opacity:1" />
      <stop offset="50%" style="stop-color:#1E293B;stop-opacity:1" />
      <stop offset="100%" style="stop-color:#0F172A;stop-opacity:1" />
    </linearGradient>
    <radialGradient id="bank-01-highlight" cx="30%" cy="30%" r="60%">
      <stop offset="0%" style="stop-color:#10B981;stop-opacity:0.15" />
      <stop offset="100%" style="stop-color:#0F172A;stop-opacity:0" />
    </radialGradient>
    <pattern id="bank-01-ledger" x="0" y="0" width="60" height="4" patternUnits="userSpaceOnUse">
      <line x1="0" y1="2" x2="60" y2="2" stroke="#D1D5DB" stroke-width="0.5" opacity="0.15" />
    </pattern>
  </defs>
  
  <!-- Base gradient -->
  <rect width="1600" height="1000" fill="url(#bank-01-base)" />
  
  <!-- Highlight blob -->
  <ellipse cx="480" cy="300" rx="600" ry="500" fill="url(#bank-01-highlight)" />
  
  <!-- Edge frame -->
  <rect x="40" y="40" width="1520" height="920" fill="none" stroke="#D1D5DB" stroke-width="2" opacity="0.2" rx="32" />
  
  <!-- Ledger micro-pattern -->
  <rect x="80" y="80" width="1440" height="840" fill="url(#bank-01-ledger)" opacity="0.6" />
  
  <!-- Shield motif (top-left) -->
  <g transform="translate(160, 120)" opacity="0.25">
    <path d="M 0,0 L 40,0 L 40,50 Q 40,70 20,80 Q 0,70 0,50 Z" fill="none" stroke="#10B981" stroke-width="3" stroke-linejoin="round" />
    <circle cx="20" cy="30" r="8" fill="none" stroke="#10B981" stroke-width="2" />
  </g>
  
  <!-- Lock ring motif (bottom-right) -->
  <g transform="translate(1360, 800)" opacity="0.25">
    <rect x="10" y="20" width="30" height="30" rx="4" fill="none" stroke="#10B981" stroke-width="3" />
    <path d="M 15,20 L 15,10 Q 15,0 25,0 Q 35,0 35,10 L 35,20" fill="none" stroke="#10B981" stroke-width="3" stroke-linecap="round" />
  </g>
  
  <!-- Corner wash for readability -->
  <rect x="100" y="120" width="400" height="120" fill="#0F172A" opacity="0.3" rx="24" />
</svg>
